<?xml version="1.0" encoding="utf-8"?>
<!-- Generator: Adobe Illustrator 22.0.1, SVG Export Plug-In . SVG Version: 6.00 Build 0)  -->
<svg version="1.1" id="レイヤー_1" xmlns="http://www.w3.org/2000/svg" xmlns:xlink="http://www.w3.org/1999/xlink" x="0px"
	 y="0px" viewBox="0 0 24 24" style="enable-background:new 0 0 24 24;" xml:space="preserve">
<g id="qwqfj2.tif">
	<g>
		<path d="M16.9,1.3c0.1,0,0.2,0,0.3,0c0,0,0.1,0,0.1,0C18.3,1.5,19,2.2,19,3.2c0,0.4,0,0.7,0,1.1c0,0.1,0,0.2,0.1,0.2
			c0.5,0.2,0.7,0.6,0.8,1.2c0,0.4-0.2,0.7-0.5,1C19.2,6.8,19,7,19,7.4c0,0.2,0,0.3,0,0.5c0,0.1,0,0.2,0.2,0.3
			c1.3,0.7,2.6,1.5,3.9,2.3c0.5,0.3,0.8,0.7,0.9,1.2c0,0.1,0,0.2,0.1,0.2c0,0.2,0,0.3,0,0.5c0,0,0,0,0,0.1c-0.1,0.7-0.5,1.1-1.1,1.4
			c-1.3,0.7-2.5,1.5-3.8,2.2C19,16,19,16,19,16.2c0,1.6,0,3.1,0,4.7c0,0.9-0.6,1.6-1.4,1.8c-0.1,0-0.2,0-0.2,0.1c-0.2,0-0.3,0-0.5,0
			c-0.4-0.1-0.8-0.3-1.2-0.5c-1.2-0.7-2.4-1.4-3.6-2.1c-0.1-0.1-0.2-0.1-0.3,0c-0.7,0.4-1.3,0.8-2,1.2c0,0-0.1,0-0.1,0.1
			c0-0.1,0-0.1,0-0.1c0-1.7,0-3.4,0-5c0,0,0,0,0-0.1c0-0.1,0-0.1,0.1-0.1c0,0,0.1,0,0.1,0c1.3,0,2.6,0,3.8,0c0.2,0,0.2,0,0.2-0.2
			c0-0.4,0-0.7,0-1.1c0-0.2,0-0.2-0.2-0.2c-1.3,0-2.6,0-3.9,0c-0.2,0-0.2,0-0.2-0.2c0-0.9,0-1.8,0-2.7c0-0.2,0-0.4,0-0.6
			c0.1-0.9,0.6-1.5,1.4-1.8C11.5,9,11.8,9,12.2,9c0.6,0,1.1,0.2,1.5,0.7c0.2,0.2,0.3,0.4,0.5,0.7c0.1,0.1,0.1,0.1,0.2,0.1
			c0.4-0.2,0.8-0.4,1.2-0.6c0.1,0,0.1-0.1,0.1-0.2C15.2,8.9,14.7,8.3,14,8c-0.8-0.4-1.7-0.5-2.6-0.4C9.8,7.8,8.8,8.6,8.4,10
			c-0.2,0.5-0.2,1-0.2,1.5c0,3.1,0,6.3,0,9.4c0,0.1,0,0.3,0,0.4c0,0.7-0.4,1.1-1.1,1.2c-0.1,0-0.2,0-0.3,0c0,0,0,0,0,0
			c0,0-0.1,0-0.1,0c-0.3,0-0.5-0.1-0.8-0.3C5.3,22,5,21.5,5,20.8c0-1.5,0-2.9,0-4.4c0-0.3-0.1-0.5-0.3-0.6c-1.3-0.7-2.5-1.4-3.7-2.2
			c-0.6-0.4-1-0.9-0.9-1.7c0-0.7,0.4-1.2,1-1.6c0.1-0.1,0.1-0.1,0.1-0.3c0-0.5,0.1-0.9,0.5-1.1C2,8.7,2.4,8.7,2.7,8.8
			c0.4,0.1,0.7,0.1,1.1-0.1c0.3-0.2,0.7-0.4,1-0.6C5,8,5,7.9,5,7.8c0-1.5,0-3.1,0-4.6c0-0.4,0.1-0.7,0.3-1C5.9,1.3,7,1.1,7.9,1.6
			c1.3,0.8,2.7,1.5,4,2.3C12,3.9,12,4,12.1,3.9c1.2-0.7,2.3-1.3,3.5-2C16,1.6,16.4,1.4,16.9,1.3z M18.2,7.6c0-0.1,0-0.1,0-0.1
			c0-0.4-0.2-0.6-0.4-0.9c-0.7-0.6-0.6-1.7,0.3-2.1c0.1,0,0.1-0.1,0.1-0.2c0-0.4,0-0.7,0-1.1c0-0.1,0-0.2,0-0.2
			c-0.1-0.8-1-1.2-1.8-0.8C12.4,4.5,8.3,6.9,4.2,9.3c-0.4,0.2-0.6,0.5-0.7,1c-0.2,0.9-1.2,1.3-1.9,0.8c-0.2-0.1-0.3-0.1-0.4,0
			c0,0,0,0,0,0c-0.8,0.5-0.7,1.6,0,2c1.2,0.7,2.4,1.4,3.6,2.1c0,0,0.1,0,0.1,0.1C5,15.1,5,15,5,15c0-1.7,0-3.5,0-5.2
			c0-0.1,0-0.2,0.2-0.3c0.7-0.4,1.4-0.8,2.1-1.2c2-1.2,4-2.3,6-3.5c0.1-0.1,0.2-0.1,0.3,0c0.3,0.2,0.6,0.3,0.9,0.5
			c1.2,0.7,2.5,1.4,3.7,2.1C18.1,7.5,18.2,7.5,18.2,7.6z M18.3,16.4c-0.1,0-0.1,0.1-0.1,0.1c-0.6,0.4-1.3,0.7-1.9,1.1
			c-0.4,0.2-0.5,0.6-0.3,1.1c0.6,1,1.2,2,1.7,3c0,0,0,0.1,0.1,0.1c0,0,0,0,0.1,0c0,0,0,0,0.1,0c0.3-0.2,0.4-0.5,0.4-0.9
			c0-1.2,0-2.4,0-3.6C18.3,17,18.3,16.7,18.3,16.4z"/>
	</g>
</g>
</svg>
